# xmcd CD database file
#
# Track frame offsets:
#	150
#	19022
#	36653
#	61107
#	81034
#	100796
#	120260
#	140947
#	167769
#	188099
#	209893
#	224401
#	246487
#	257966
#	285877
#
# Disc length: 4151 seconds
#
# Revision: 1
# Processed by: cddbd v1.5.2PL0 Copyright (c) Steve Scherf et al.
# Submitted via: CDex 1.50
#
DISCID=e210350f
DTITLE=Various Artist - Salsa Fever CD4
DYEAR=2003
DGENRE=Salsa
TTITLE0=Cheo Feliciano - Anacaona
TTITLE1=Ismael Miranda - Asi se compone un son
TTITLE2=Fania All-Stars - Bamboleo
TTITLE3=Johny Pacheco - Dulce con dulce
TTITLE4=Pete Rodriguez - I like it like that
TTITLE5=Hector Lavoe - El Todopoderoso
TTITLE6=Sonora Poncena - Fuego en el 23
TTITLE7=Eddie Palmieri - Justicia
TTITLE8=Charlie Palmieri - La Hija de Lola
TTITLE9=Tipica 73 - Chanchullo
TTITLE10=Roberto Roena - Que se sepa
TTITLE11=Johny Pacheco y Hector Casanova - Guaganco Pa'l Que Sabe
TTITLE12=Louie Ramirez - El Titere
TTITLE13=Fania All Stars feat. Ruben Blades - Juan Pachanga
TTITLE14=Celia Cruz and Johny Pacheco - Toro Mata
EXTD=YEAR: 2003
EXTT0=
EXTT1=
EXTT2=
EXTT3=
EXTT4=
EXTT5=
EXTT6=
EXTT7=
EXTT8=
EXTT9=
EXTT10=
EXTT11=
EXTT12=
EXTT13=
EXTT14=
PLAYORDER=
